<svg width="63" height="42" viewBox="0 0 63 42" fill="none" xmlns="http://www.w3.org/2000/svg">
<path d="M42 21C42 32.598 32.598 42 21 42C9.40202 42 0 32.598 0 21C0 9.40202 9.40202 0 21 0C32.598 0 42 9.40202 42 21Z" fill="white"/>
<path fill-rule="evenodd" clip-rule="evenodd" d="M42 37.5C51.1127 37.5 58.5 30.1127 58.5 21C58.5 11.8873 51.1127 4.5 42 4.5C32.8873 4.5 25.5 11.8873 25.5 21C25.5 30.1127 32.8873 37.5 42 37.5ZM42 42C53.598 42 63 32.598 63 21C63 9.40202 53.598 0 42 0C30.402 0 21 9.40202 21 21C21 32.598 30.402 42 42 42Z" fill="white"/>
</svg>
