<svg width="168" height="28" viewBox="0 0 168 28" fill="none" xmlns="http://www.w3.org/2000/svg">
<path d="M65.9747 21V8.04H71.3297C71.4557 8.04 71.6177 8.046 71.8157 8.058C72.0137 8.064 72.1967 8.082 72.3647 8.112C73.1147 8.226 73.7327 8.475 74.2187 8.859C74.7107 9.243 75.0737 9.729 75.3077 10.317C75.5477 10.899 75.6677 11.547 75.6677 12.261C75.6677 12.969 75.5477 13.617 75.3077 14.205C75.0677 14.787 74.7017 15.27 74.2097 15.654C73.7237 16.038 73.1087 16.287 72.3647 16.401C72.1967 16.425 72.0107 16.443 71.8067 16.455C71.6087 16.467 71.4497 16.473 71.3297 16.473H68.1437V21H65.9747ZM68.1437 14.448H71.2397C71.3597 14.448 71.4947 14.442 71.6447 14.43C71.7947 14.418 71.9327 14.394 72.0587 14.358C72.4187 14.268 72.7007 14.109 72.9047 13.881C73.1147 13.653 73.2617 13.395 73.3457 13.107C73.4357 12.819 73.4807 12.537 73.4807 12.261C73.4807 11.985 73.4357 11.703 73.3457 11.415C73.2617 11.121 73.1147 10.86 72.9047 10.632C72.7007 10.404 72.4187 10.245 72.0587 10.155C71.9327 10.119 71.7947 10.098 71.6447 10.092C71.4947 10.08 71.3597 10.074 71.2397 10.074H68.1437V14.448ZM77.2583 21L81.3443 8.04H84.5213L88.6073 21H86.3753L82.6673 9.372H83.1533L79.4903 21H77.2583ZM79.5353 18.192V16.167H86.3393V18.192H79.5353ZM91.8185 21V8.04H97.1735C97.2995 8.04 97.4615 8.046 97.6595 8.058C97.8575 8.064 98.0405 8.082 98.2085 8.112C98.9585 8.226 99.5765 8.475 100.063 8.859C100.555 9.243 100.918 9.729 101.152 10.317C101.392 10.899 101.512 11.547 101.512 12.261C101.512 13.317 101.245 14.226 100.711 14.988C100.177 15.744 99.3575 16.212 98.2535 16.392L97.3265 16.473H93.9875V21H91.8185ZM99.2615 21L96.7055 15.726L98.9105 15.24L101.719 21H99.2615ZM93.9875 14.448H97.0835C97.2035 14.448 97.3385 14.442 97.4885 14.43C97.6385 14.418 97.7765 14.394 97.9025 14.358C98.2625 14.268 98.5445 14.109 98.7485 13.881C98.9585 13.653 99.1055 13.395 99.1895 13.107C99.2795 12.819 99.3245 12.537 99.3245 12.261C99.3245 11.985 99.2795 11.703 99.1895 11.415C99.1055 11.121 98.9585 10.86 98.7485 10.632C98.5445 10.404 98.2625 10.245 97.9025 10.155C97.7765 10.119 97.6385 10.098 97.4885 10.092C97.3385 10.08 97.2035 10.074 97.0835 10.074H93.9875V14.448ZM104.385 21L108.471 8.04H111.648L115.734 21H113.502L109.794 9.372H110.28L106.617 21H104.385ZM106.662 18.192V16.167H113.466V18.192H106.662ZM124.075 21.27C122.779 21.27 121.669 20.988 120.745 20.424C119.821 19.854 119.11 19.062 118.612 18.048C118.12 17.034 117.874 15.858 117.874 14.52C117.874 13.182 118.12 12.006 118.612 10.992C119.11 9.978 119.821 9.189 120.745 8.625C121.669 8.055 122.779 7.77 124.075 7.77C125.569 7.77 126.814 8.145 127.81 8.895C128.806 9.639 129.505 10.644 129.907 11.91L127.72 12.513C127.468 11.667 127.039 11.007 126.433 10.533C125.827 10.053 125.041 9.813 124.075 9.813C123.205 9.813 122.479 10.008 121.897 10.398C121.321 10.788 120.886 11.337 120.592 12.045C120.304 12.747 120.157 13.572 120.151 14.52C120.151 15.468 120.295 16.296 120.583 17.004C120.877 17.706 121.315 18.252 121.897 18.642C122.479 19.032 123.205 19.227 124.075 19.227C125.041 19.227 125.827 18.987 126.433 18.507C127.039 18.027 127.468 17.367 127.72 16.527L129.907 17.13C129.505 18.396 128.806 19.404 127.81 20.154C126.814 20.898 125.569 21.27 124.075 21.27ZM136.031 21L131.945 8.04H134.177L137.597 18.894L141.062 8.04H143.294L139.208 21H136.031ZM146.231 21V8.04H154.601V10.074H148.4V13.269H153.521V15.303H148.4V18.966H154.601V21H146.231ZM161.458 21V10.074H157.264V8.04H167.821V10.074H163.627V21H161.458Z" fill="black" fill-opacity="0.8"/>
<path d="M28 14C28 21.732 21.732 28 14 28C6.26801 28 0 21.732 0 14C0 6.26801 6.26801 0 14 0C21.732 0 28 6.26801 28 14Z" fill="black"/>
<path fill-rule="evenodd" clip-rule="evenodd" d="M28 25C34.0751 25 39 20.0751 39 14C39 7.92487 34.0751 3 28 3C21.9249 3 17 7.92487 17 14C17 20.0751 21.9249 25 28 25ZM28 28C35.732 28 42 21.732 42 14C42 6.26801 35.732 0 28 0C20.268 0 14 6.26801 14 14C14 21.732 20.268 28 28 28Z" fill="black"/>
</svg>
