<svg width="190" height="78" viewBox="0 0 190 78" fill="none" xmlns="http://www.w3.org/2000/svg">
<path d="M125.199 76.3756L148.529 1.97559H166.669L189.999 76.3756H177.255L156.083 9.62225H158.858L137.943 76.3756H125.199ZM138.2 60.2556V48.6306H177.049V60.2556H138.2Z" fill="white"/>
<path d="M27.5977 1.47559V1.97559H32.1328V1.47559H36.668V1.97559H41.2021V1.47559H43.8369L43.9473 1.82617L44.6758 4.15137L44.1982 4.30078L45.6562 8.9502L46.1338 8.80078L47.5928 13.4512L47.1143 13.6006L48.5732 18.25L49.0508 18.1006L50.5088 22.751L50.0303 22.9004L51.4893 27.5498L51.9668 27.4014L53.4248 32.0508L52.9482 32.2002H52.9473L54.4053 36.8506H54.4062L54.8828 36.7012L56.3408 41.3506L55.8633 41.501L57.3213 46.1504L57.7988 46.001L59.2578 50.6514L58.7793 50.8008L60.2373 55.4502L60.7158 55.3008L62.1738 59.9512L61.6953 60.1006L63.1543 64.75L63.6318 64.6006L65.0898 69.251L64.6133 69.4004H64.6123L66.0703 74.0508H66.0713L66.5479 73.9014L67.2773 76.2256L67.4805 76.876H63.6143V76.376H57.2422V76.876H53.6895L53.5791 76.5264L52.8232 74.1426L53.2988 73.9912L51.7871 69.2227V69.2236L51.3105 69.375L49.7988 64.6064L50.2744 64.4551L48.9434 60.2559H46.5664V60.7559H41.71V60.2559H36.8535V60.7559H31.998V60.2559H27.1416V60.7559H22.2852V60.2559H19.7949L18.4785 64.4551L18.9561 64.6045L17.4619 69.373L16.9854 69.2236L16.9844 69.2227L15.4912 73.9912L15.9678 74.1406L15.2217 76.5254L15.1113 76.876H11.5586V76.376H5.18652V76.876H1.31934L1.52246 76.2256L2.25195 73.9014L2.72852 74.0498L4.18652 69.3994L3.70996 69.251L5.16797 64.6006L5.64453 64.75L7.10352 60.1006L6.62598 59.9512L8.08496 55.3008L8.56152 55.4502L10.0195 50.8008L9.54297 50.6514L11.001 46.001L11.4775 46.1504L12.9355 41.501L12.459 41.3506L13.917 36.7012L14.3936 36.8496L15.8516 32.1992L15.375 32.0508L16.833 27.4014L17.3096 27.5498L18.7686 22.9004L18.291 22.751L19.749 18.1006L20.2256 18.25L21.6846 13.6006L21.208 13.4512L22.666 8.80078L23.1426 8.9502L24.6006 4.30078L24.124 4.15137L24.8525 1.82617L24.9629 1.47559H27.5977ZM36.6641 21.543L36.1885 21.6934L34.6758 16.9258L35.1523 16.7744H35.1514L34.2793 14.0234L33.418 16.7744L33.8955 16.9238L32.4014 21.6924L31.9238 21.543L30.4297 26.3096L30.4307 26.3105L30.9072 26.46L29.4131 31.2285L28.9365 31.0791L28.9355 31.0781L27.4424 35.8467L27.9199 35.9961L26.4258 40.7646L25.9482 40.6152L24.4541 45.3818L24.4551 45.3828L24.9316 45.5322L24.1172 48.1309H27.1416V48.6309H31.998V48.1309H36.8535V48.6309H41.71V48.1309H44.5732L43.749 45.5342L44.2256 45.3828L42.7129 40.6152L42.2373 40.7656L40.7246 35.998L41.2012 35.8467V35.8457L39.6885 31.0791L39.2129 31.2295L37.7002 26.4619L38.1768 26.3105L36.6641 21.543Z" stroke="#9E9E9E" stroke-dasharray="5 5"/>
<path d="M81.1992 37.1756L118.799 37.1756M118.799 37.1756L112.432 30.7756M118.799 37.1756L112.432 43.5756" stroke="white" stroke-width="2"/>
<circle cx="82.0004" cy="37.1756" r="1.6" fill="white"/>
<ellipse cx="104" cy="37.1756" rx="2" ry="1.6" fill="white"/>
<ellipse cx="109.6" cy="37.1756" rx="2" ry="1.6" fill="white"/>
<circle cx="98.0008" cy="37.1756" r="3.2" fill="white"/>
<ellipse cx="90.4004" cy="37.1756" rx="2" ry="2.4" fill="white"/>
</svg>
