<svg width="313" height="78" viewBox="0 0 313 78" fill="none" xmlns="http://www.w3.org/2000/svg">
<path d="M130.092 76.998V1.97559H159.84C164.911 1.97559 169.062 3.0002 172.292 5.04942C175.557 7.06392 177.971 9.65149 179.534 12.8122C181.131 15.9728 181.93 19.2377 181.93 22.6068C181.93 26.7399 180.94 30.2479 178.961 33.1307C177.016 36.0136 174.359 37.9586 170.989 38.9658V36.3609C175.713 37.4376 179.291 39.6778 181.722 43.0816C184.188 46.4854 185.421 50.3581 185.421 54.6997C185.421 59.1455 184.57 63.0355 182.868 66.3699C181.166 69.7042 178.631 72.3091 175.262 74.1847C171.927 76.0603 167.794 76.998 162.862 76.998H130.092ZM142.804 65.1716H161.299C163.487 65.1716 165.45 64.7374 167.186 63.8691C168.923 62.9661 170.277 61.7157 171.25 60.118C172.257 58.4856 172.761 56.5579 172.761 54.335C172.761 52.3205 172.327 50.5144 171.458 48.9167C170.59 47.319 169.322 46.0513 167.655 45.1135C165.988 44.141 163.991 43.6547 161.664 43.6547H142.804V65.1716ZM142.804 31.9325H159.684C161.49 31.9325 163.105 31.5851 164.529 30.8905C165.953 30.1958 167.082 29.1712 167.916 27.8167C168.749 26.4621 169.166 24.7949 169.166 22.8152C169.166 20.2102 168.332 18.0394 166.665 16.3028C164.998 14.5662 162.671 13.6978 159.684 13.6978H142.804V31.9325Z" fill="#434343"/>
<path d="M3.47949 1.47559V1.97559H8.4375V1.47559H13.3955V1.97559H18.3535V1.47559H23.3115V1.97559H28.2695V1.47559H30.748C31.8901 1.47559 32.9884 1.52695 34.042 1.62988L33.9932 2.12793L33.9922 2.13086C36.3272 2.35893 38.4315 2.84086 40.3047 3.58301H40.3057L40.4902 3.11816C41.5512 3.53859 42.5423 4.04048 43.4629 4.62402C44.2612 5.11663 45.011 5.6436 45.7119 6.20508L45.3994 6.5957L45.3984 6.59668C46.8401 7.7516 48.0658 9.05134 49.0742 10.498H49.0752L49.4854 10.2129C50.0102 10.966 50.4773 11.7575 50.8877 12.5869C51.2846 13.3722 51.6337 14.1644 51.9346 14.9639L51.4668 15.1396H51.4658C52.0743 16.7562 52.48 18.399 52.6836 20.0684L53.1816 20.0078C53.2865 20.8674 53.3389 21.7337 53.3389 22.6064L53.3281 23.332C53.3078 24.0517 53.2573 24.7532 53.1758 25.4365L52.6797 25.3779L52.6768 25.377C52.4456 27.3153 51.9622 29.0935 51.2275 30.7139L51.2305 30.7148L51.6855 30.9219C51.2887 31.7971 50.821 32.6282 50.2812 33.4141L50.2803 33.4131C49.7851 34.1466 49.2451 34.8233 48.6582 35.4414L48.2949 35.0977L48.2939 35.0967C47.422 36.0148 46.4482 36.7984 45.3711 37.4463C47.3388 38.2508 49.0455 39.3199 50.4912 40.6543H50.4922L50.832 40.2871C51.6472 41.0396 52.3816 41.8736 53.0352 42.7881C53.6666 43.6597 54.2197 44.5624 54.6943 45.4961L54.248 45.7227C55.1845 47.5647 55.8041 49.5269 56.1084 51.6094H56.1094L56.6045 51.5371C56.7546 52.5643 56.8291 53.6191 56.8291 54.7002L56.8203 55.4805C56.8028 56.2559 56.7586 57.0152 56.6885 57.7578L56.1914 57.7109L56.1885 57.71C55.9898 59.8121 55.5768 61.7736 54.9492 63.5957L54.9521 63.5967L55.4248 63.7598C55.1703 64.4987 54.8806 65.2154 54.5566 65.9102L54.2217 66.5977C53.7852 67.4528 53.2945 68.2622 52.75 69.0254L52.3428 68.7344C51.2716 70.2356 49.9866 71.5493 48.4893 72.6777L48.4902 72.6797L48.791 73.0791C48.0489 73.6384 47.2558 74.1505 46.4141 74.6191L46.415 74.6201C45.4761 75.1483 44.4765 75.6033 43.418 75.9854L43.249 75.5156L43.2471 75.5117C41.3579 76.1936 39.2694 76.6411 36.9795 76.8525L36.9805 76.8555L37.0264 77.3535C35.9806 77.4501 34.8951 77.498 33.7705 77.498H31.0391V76.998H25.5781V77.498H20.1162V76.998H14.6543V77.498H9.19238V76.998H3.73047V77.498H0.5V74.6533H1V69.9648H0.5V65.2754H1V60.5869H0.5V55.8984H1V51.209H0.5V46.5205H1V41.8311H0.5V37.1426H1V32.4531H0.5V27.7646H1V23.0752H0.5V18.3867H1V13.6982H0.5V9.00879H1V4.32031H0.5V1.47559H3.47949ZM39.7051 45.8545L39.4072 46.2549C39.1525 46.0651 38.8846 45.8856 38.6035 45.7158L38.3184 45.5488L38.3115 45.5459L38.5635 45.1133L38.3115 45.5449C37.8903 45.2992 37.446 45.0861 36.9785 44.9053L37.1572 44.4395C36.231 44.0813 35.2217 43.8461 34.1289 43.7334L34.0781 44.2295C33.7155 44.1921 33.3425 44.1686 32.959 44.1592L32.5723 44.1543H30.2148V43.6543H25.5V44.1543H20.7842V43.6543H16.0693V44.1543H14.2119V46.3447H13.7119V51.7236H14.2119V57.1025H13.7119V62.4824H14.2119V64.6719H16.0244V65.1719H20.6475V64.6719H25.2715V65.1719H29.8955V64.6719H32.207L32.582 64.667C32.9545 64.6581 33.3194 64.636 33.6768 64.6006L33.7256 65.0967C34.7717 64.9932 35.7604 64.7799 36.6924 64.457L36.5293 63.9863C36.9895 63.8269 37.4347 63.6388 37.8652 63.4238C38.2692 63.2137 38.6509 62.9854 39.0098 62.7373L39.293 63.1475C40.0757 62.6064 40.7616 61.9778 41.3496 61.2598L40.9629 60.9434C41.2416 60.6031 41.4982 60.2416 41.7314 59.8584L41.7324 59.8555L41.9141 59.5479C42.0896 59.2362 42.247 58.9138 42.3857 58.5801L42.8457 58.7705C43.2199 57.87 43.4664 56.8951 43.585 55.8447L43.0898 55.79C43.1427 55.3222 43.1689 54.8371 43.1689 54.335L43.165 53.9902C43.1561 53.6475 43.1332 53.312 43.0977 52.9834L43.5947 52.9297H43.5938C43.4895 51.9657 43.2754 51.0547 42.9512 50.1963L42.4844 50.3721C42.3657 50.0579 42.2316 49.7513 42.082 49.4521L41.9268 49.1553C41.7189 48.7729 41.4877 48.4108 41.2324 48.0693L41.6318 47.7695C41.0915 47.0469 40.4491 46.4088 39.7051 45.8545ZM15.8223 14.1982H14.2119V15.9775H13.7119V20.5361H14.2119V25.0947H13.7119V29.6533H14.2119V31.4326H15.8223V31.9326H20.042V31.4326H24.2617V31.9326H28.4824V31.4326H30.5918L31.2012 31.4189C31.4012 31.4096 31.5986 31.3955 31.793 31.377L31.8389 31.873C32.701 31.7907 33.5146 31.621 34.2803 31.3633L34.1221 30.8896C34.5001 30.7624 34.8654 30.6133 35.2178 30.4414L35.4648 30.3154C35.7076 30.1867 35.9405 30.048 36.1631 29.8984L36.4404 30.3125C37.0863 29.8788 37.6564 29.3611 38.1514 28.7588L37.7656 28.4424C37.9927 28.1662 38.2041 27.8705 38.3984 27.5547L38.5498 27.2949C38.6966 27.0312 38.8279 26.7549 38.9434 26.4658L39.4062 26.6504C39.712 25.8851 39.9125 25.0413 40.0078 24.1182L39.5117 24.0674C39.553 23.6674 39.5742 23.2501 39.5742 22.8154L39.5654 22.375C39.5486 21.94 39.5064 21.5199 39.4395 21.1143L39.9307 21.0322C39.7289 19.8108 39.3137 18.7014 38.6797 17.7051V17.7061L38.2578 17.9746C38.0352 17.6247 37.7836 17.2888 37.5029 16.9668L37.2129 16.6494C36.7943 16.2134 36.3316 15.8362 35.8252 15.5176L36.0898 15.0957C35.0637 14.4502 33.8684 14.0288 32.502 13.8311L32.4316 14.3242C31.9984 14.2615 31.5452 14.2219 31.0723 14.2061L30.5918 14.1982H28.4824V13.6982H24.2617V14.1982H20.042V13.6982H15.8223V14.1982Z" stroke="#9E9E9E" stroke-dasharray="5 5"/>
<path d="M257.672 76.998V1.97559H287.42C292.491 1.97559 296.642 3.0002 299.872 5.04942C303.137 7.06392 305.551 9.65149 307.114 12.8122C308.711 15.9728 309.51 19.2377 309.51 22.6068C309.51 26.7399 308.52 30.2479 306.541 33.1307C304.596 36.0136 301.939 37.9586 298.57 38.9658V36.3609C303.293 37.4376 306.871 39.6778 309.302 43.0816C311.768 46.4854 313.001 50.3581 313.001 54.6997C313.001 59.1455 312.15 63.0355 310.448 66.3699C308.746 69.7042 306.211 72.3091 302.842 74.1847C299.507 76.0603 295.374 76.998 290.442 76.998H257.672ZM270.384 65.1716H288.879C291.067 65.1716 293.03 64.7374 294.766 63.8691C296.503 62.9661 297.858 61.7157 298.83 60.118C299.837 58.4856 300.341 56.5579 300.341 54.335C300.341 52.3205 299.907 50.5144 299.038 48.9167C298.17 47.319 296.902 46.0513 295.235 45.1135C293.568 44.141 291.571 43.6547 289.244 43.6547H270.384V65.1716ZM270.384 31.9325H287.264C289.07 31.9325 290.685 31.5851 292.109 30.8905C293.533 30.1958 294.662 29.1712 295.496 27.8167C296.329 26.4621 296.746 24.7949 296.746 22.8152C296.746 20.2102 295.912 18.0394 294.245 16.3028C292.578 14.5662 290.251 13.6978 287.264 13.6978H270.384V31.9325Z" fill="#434343"/>
<path d="M159.772 1.97559C164.843 1.97564 168.994 3.00063 172.224 5.0498C175.488 7.06429 177.903 9.65187 179.466 12.8125C181.063 15.9729 181.862 19.2376 181.862 22.6064C181.862 23.0835 181.847 23.5523 181.82 24.0127H169.042C169.078 23.6271 169.098 23.2281 169.098 22.8154C169.098 20.2105 168.264 18.0394 166.597 16.3027C164.93 14.5663 162.603 13.6983 159.616 13.6982H153.764V1.97559H159.772Z" fill="white"/>
<path d="M287.352 1.97559C292.423 1.97559 296.574 3.00058 299.804 5.0498C303.068 7.06427 305.482 9.65194 307.045 12.8125C308.643 15.973 309.441 19.2375 309.441 22.6064C309.441 23.0835 309.427 23.5523 309.4 24.0127H296.622C296.658 23.6272 296.678 23.2281 296.678 22.8154C296.678 20.2105 295.844 18.0394 294.177 16.3027C292.51 14.5661 290.182 13.6982 287.195 13.6982H281.344V1.97559H287.352Z" fill="white"/>
<path d="M270.315 54.6681V65.172H285.541V76.9981H257.604V54.3692L270.315 54.6681Z" fill="white"/>
<path d="M81.166 37.4309L118.669 37.4309M118.669 37.4309L112.318 31.2377M118.669 37.4309L112.318 43.624" stroke="white" stroke-width="2"/>
<path d="M205.373 37.4309L242.876 37.4309M242.876 37.4309L236.525 31.2377M242.876 37.4309L236.525 43.624" stroke="white" stroke-width="2"/>
<circle cx="95.618" cy="37.4309" r="3.09657" fill="white"/>
<circle cx="215.35" cy="37.4309" r="3.09657" fill="white"/>
<circle cx="223.609" cy="37.4309" r="1.72031" fill="white"/>
</svg>
